<svg id="Capa_1" enable-background="new 0 0 512 512" height="512" viewBox="0 0 512 512" width="512" xmlns="http://www.w3.org/2000/svg"><g><g><g><path d="m144.782 441.329c6.923 3.073 15.267.881 19.71-5.589 5.012-7.301 3.158-17.282-4.143-22.295-42.729-29.339-68.007-77.752-67.616-129.505.363-48.406 22.66-93.051 61.172-122.488 7.036-5.378 8.379-15.441 3.001-22.477-5.378-7.037-15.441-8.379-22.477-3.002-46.44 35.498-73.327 89.342-73.765 147.726-.47 62.421 30.009 120.808 81.533 156.184.83.57 1.696 1.052 2.585 1.446z" fill="#fbac5b"/><g fill="#fddb8d"><path d="m67.386 243.612c10.928 4.851 19.798 6.717 20.772 6.914 3.249.655 6.586-.94 8.116-3.88.204-.393 5.018-9.717 8.183-22.532 4.328-17.523 3.48-33.346-2.455-45.759-5.934-12.413-17.715-23.01-34.071-30.645-.637-.297-1.271-.585-1.896-.863-10.934-4.854-19.803-6.72-20.779-6.918-3.248-.655-6.585.941-8.115 3.88-.204.393-5.018 9.717-8.184 22.532-4.329 17.522-3.479 33.346 2.456 45.76 5.934 12.412 17.716 23.009 34.07 30.644.642.301 1.276.589 1.903.867z"/><path d="m80.661 466.802c12.852 5.705 25.508 7.674 36.596 5.691 13.543-2.422 26.891-10.963 38.598-24.7 8.397-9.853 13.03-18.806 13.53-19.794 1.492-2.953.841-6.595-1.586-8.852-.809-.751-8.241-7.536-19.546-13.877-2.717-1.525-5.468-2.907-8.176-4.109-12.849-5.704-25.501-7.67-36.59-5.688-13.544 2.422-26.892 10.963-38.599 24.7-8.397 9.852-13.03 18.806-13.53 19.794-1.492 2.953-.841 6.595 1.586 8.852.809.751 8.24 7.535 19.546 13.877 2.715 1.523 5.464 2.904 8.171 4.106z"/><path d="m36.626 352.994c9.9 4.395 21.721 6.244 35.131 5.496 12.938-.722 22.602-3.547 23.661-3.866 3.17-.958 5.356-3.942 5.314-7.257-.005-.442-.172-10.929-3.444-23.723-4.472-17.486-12.701-31.027-23.8-39.16-2.831-2.075-5.987-3.89-9.38-5.396-9.901-4.395-21.721-6.244-35.132-5.496-12.937.722-22.602 3.547-23.661 3.867-3.17.958-5.356 3.943-5.314 7.257.005.442.171 10.927 3.444 23.722 4.472 17.486 12.701 31.027 23.8 39.16.432.316.871.626 1.318.931l.008.005c2.48 1.689 5.183 3.185 8.055 4.46z"/><path d="m149.806 159.403c2.457 1.091 5.325.773 7.488-.827.354-.263 8.769-6.538 17.227-16.67 11.568-13.855 17.736-28.451 17.84-42.21.103-13.758-5.846-28.446-17.204-42.475-8.31-10.264-16.621-16.657-16.971-16.924-.472-.361-.98-.663-1.515-.9-2.454-1.089-5.322-.771-7.483.83-.355.263-8.77 6.539-17.228 16.67-11.568 13.855-17.736 28.452-17.84 42.21-.103 13.759 5.846 28.446 17.203 42.474 8.31 10.264 16.622 16.658 16.973 16.925.468.359.976.661 1.51.897z"/></g></g><g><path d="m367.218 441.329c-6.923 3.073-15.267.881-19.71-5.589-5.012-7.301-3.158-17.282 4.143-22.295 42.729-29.339 68.007-77.752 67.616-129.505-.363-48.406-22.66-93.051-61.172-122.488-7.036-5.378-8.379-15.441-3.001-22.477 5.378-7.037 15.441-8.379 22.477-3.002 46.44 35.498 73.327 89.342 73.766 147.726.47 62.421-30.009 120.808-81.533 156.184-.831.57-1.697 1.052-2.586 1.446z" fill="#fd8f32"/><g fill="#fbac5b"><path d="m444.614 243.612c-10.928 4.851-19.798 6.717-20.772 6.914-3.249.655-6.586-.94-8.116-3.88-.204-.393-5.018-9.717-8.183-22.532-4.328-17.523-3.48-33.346 2.455-45.759 5.934-12.413 17.715-23.01 34.071-30.645.637-.297 1.271-.585 1.896-.863 10.934-4.854 19.803-6.72 20.779-6.918 3.248-.655 6.585.941 8.115 3.88.204.393 5.018 9.717 8.184 22.532 4.329 17.522 3.479 33.346-2.456 45.76-5.934 12.412-17.716 23.009-34.07 30.644-.643.301-1.276.589-1.903.867z"/><path d="m431.339 466.802c-12.852 5.705-25.508 7.674-36.596 5.691-13.543-2.422-26.891-10.963-38.598-24.7-8.397-9.853-13.03-18.806-13.53-19.794-1.492-2.953-.841-6.595 1.586-8.852.809-.751 8.241-7.536 19.546-13.877 2.717-1.525 5.468-2.907 8.176-4.109 12.849-5.704 25.501-7.67 36.59-5.688 13.544 2.422 26.892 10.963 38.599 24.7 8.397 9.852 13.03 18.806 13.53 19.794 1.492 2.953.841 6.595-1.586 8.852-.809.751-8.24 7.535-19.546 13.877-2.715 1.523-5.464 2.904-8.171 4.106z"/><path d="m475.374 352.994c-9.9 4.395-21.721 6.244-35.131 5.496-12.938-.722-22.602-3.547-23.661-3.866-3.17-.958-5.356-3.942-5.314-7.257.005-.442.172-10.929 3.444-23.723 4.471-17.486 12.701-31.027 23.8-39.16 2.831-2.075 5.987-3.89 9.38-5.396 9.901-4.395 21.721-6.244 35.132-5.496 12.937.722 22.602 3.547 23.661 3.867 3.17.958 5.356 3.943 5.314 7.257-.005.442-.172 10.927-3.444 23.722-4.472 17.486-12.701 31.027-23.8 39.16-.432.316-.871.626-1.318.931l-.008.005c-2.48 1.689-5.183 3.185-8.055 4.46z"/><path d="m362.194 159.403c-2.457 1.091-5.325.773-7.488-.827-.354-.263-8.769-6.538-17.227-16.67-11.568-13.855-17.736-28.451-17.841-42.21-.103-13.758 5.846-28.446 17.204-42.475 8.31-10.264 16.621-16.657 16.971-16.924.473-.361.98-.663 1.515-.9 2.454-1.089 5.322-.771 7.483.83.355.263 8.77 6.539 17.228 16.67 11.568 13.855 17.737 28.452 17.841 42.21.103 13.759-5.846 28.446-17.203 42.474-8.31 10.264-16.622 16.658-16.973 16.925-.468.359-.976.661-1.51.897z"/></g></g></g><g><path d="m310.803 387.441c-2.388 0-4.784-.569-6.979-1.723l-47.824-25.143-47.825 25.142c-5.054 2.657-11.177 2.215-15.797-1.142-4.619-3.356-6.933-9.043-5.967-14.671l9.134-53.253-38.691-37.714c-4.088-3.985-5.56-9.946-3.795-15.376 1.764-5.43 6.458-9.388 12.108-10.209l53.47-7.77 23.912-48.452c2.527-5.12 7.742-8.361 13.451-8.361s10.924 3.242 13.451 8.361l23.912 48.452 53.47 7.77c5.65.821 10.344 4.779 12.108 10.209 1.765 5.43.293 11.391-3.795 15.376l-38.691 37.714 9.134 53.253c.965 5.628-1.348 11.315-5.967 14.671-2.614 1.899-5.708 2.866-8.819 2.866z" fill="#fddb8d"/><path d="m358.941 263.561c-1.764-5.43-6.458-9.388-12.108-10.209l-53.47-7.77-23.912-48.452c-2.527-5.12-7.742-8.361-13.451-8.361v171.806l47.825 25.142c2.194 1.154 4.591 1.723 6.979 1.723 3.11 0 6.205-.966 8.818-2.865 4.619-3.356 6.933-9.043 5.967-14.671l-9.134-53.253 38.691-37.714c4.088-3.985 5.56-9.946 3.795-15.376z" fill="#fbac5b"/></g></g></svg>